{"title":"The.Shining.1980.x264.AC3(5.1).Multisub.mkv-Zen_Bud","uid":5798097,"size":1459813892,"categoryP":"video","categoryS":"movies","magnet":"?xt=urn:btih:d316a37e10ac6872cb48eded2a9ad3c7faaf6a9f&amp;dn=The.Shining.1980.x264.AC3%285.1%29.Multisub.mkv-Zen_Bud&amp;tr=udp%3A%2F%2Ftracker.openbittorrent.com%3A80&amp;tr=udp%3A%2F%2Fopen.demonii.com%3A1337&amp;tr=udp%3A%2F%2Ftracker.coppersurfer.tk%3A6969&amp;tr=udp%3A%2F%2Fexodus.desync.com%3A6969","seeders":0,"leechers":0,"uploader":"Zen_Bud","files":-1,"time":1283157095,"description":"\n*******The.Shining.1980.x264.AC3(5.1).Multisub.mkv-Zen_Bud**********\n\nFormat                           : Matroska\nFile size                        : 1.36 GiB\nDuration                         : 1h 54mn\nOverall bit rate                 : 1 697 Kbps\nWriting application              : HandBrake 0.9.4\n\nVideo\n\nFormat                           : AVC\nDuration                         : 1h 54mn\nBit rate                         : 1 279 Kbps\nWidth                            : 718 pixels\nHeight                           : 576 pixels\nDisplay aspect ratio             : 16:9\nStream size                      : 1.02 GiB (75%)\nWriting library                  : x264 core 79\n\n\nAudio\n\nFormat                           : AC-3\nDuration                         : 1h 54mn\nBit rate                         : 384 Kbps\nChannel(s)                       : 6 channels\nChannel positions                : Front: L C R, Side: L R, LFE\nSampling rate                    : 48.0 KHz\nBit depth                        : 16 bits\nStream size                      : 315 MiB (23%)\nLanguage                         : English\n\nText #1\nLanguage                         : English\n\nText #2\nLanguage                         : Swedish\n\nText #3\nLanguage                         : Norwegian\n\nText #4\nLanguage                         : Danish\n\nText #5\nLanguage                         : Finnish\n\nText #6\nLanguage                         : Icelandic\n\n","torrent":{"xt":"urn:btih:d316a37e10ac6872cb48eded2a9ad3c7faaf6a9f","amp;dn":"The.Shining.1980.x264.AC3%285.1%29.Multisub.mkv-Zen_Bud","amp;tr":["udp%3A%2F%2Ftracker.openbittorrent.com%3A80","udp%3A%2F%2Fopen.demonii.com%3A1337","udp%3A%2F%2Ftracker.coppersurfer.tk%3A6969","udp%3A%2F%2Fexodus.desync.com%3A6969"],"infoHash":"d316a37e10ac6872cb48eded2a9ad3c7faaf6a9f","infoHashBuffer":{"type":"Buffer","data":[211,22,163,126,16,172,104,114,203,72,237,237,42,154,211,199,250,175,106,159]},"announce":[],"urlList":[]}}